<svg version="1.1" xmlns="http://www.w3.org/2000/svg" viewBox="-65.28858323313767 -79.91070363763592 151.49495136611665 159.8214072752718" fill="none" stroke="black" stroke-width="0.6%" vector-effect="non-scaling-stroke">
    <path d="M -64.28858 38.81118 A 50.5 25.5584 180 0 0 -6.2768 64.08525" />
    <path d="M -6.2768 -13.53712 L -6.2768 64.08525" />
    <path d="M -6.2768 -13.53712 A 50.5 25.5584 360 0 1 -64.28858 -38.81118 A 50.5 25.5584 360 0 1 -14.23762 -64.36857" />
    <path d="M -56.21499 -38.81118 L -56.21499 -43.12354 L 14.49569 -7.33637 L 85.20637 -43.12354 L 14.49569 -78.9107 L -56.21499 -43.12354" />
    <path d="M -6.2768 -13.53712 L -56.21499 -38.81118" />
    <path d="M -14.23762 64.36857 L 14.49569 78.9107 L 85.20637 43.12354 L 85.20637 -43.12354" />
    <path d="M 14.49569 78.9107 L 14.49569 -7.33637" />
    <path d="M -64.28858 -38.81118 L -64.28858 38.81118" />
</svg>