<svg viewBox="0 0 800 800" xmlns="http://www.w3.org/2000/svg"><path d="M633.5662795612341,367.7602560713313 L682.7161068871746,403.9404040559414 M682.7161068871746,403.9404040559414 L715.457083042789,445.8668662893588 M715.457083042789,445.8668662893588 L729.8790705924673,491.10784050777636 M729.8790705924673,491.10784050777636 L725.133451093227,537.0363970030696 M725.133451093227,537.0363970030696 L701.4849842249062,580.9825575333168 M701.4849842249062,580.9825575333168 L660.2988096570155,620.3886707876893 M660.2988096570155,620.3886707876893 L603.9633454547622,652.9589106186293 M603.9633454547622,652.9589106186293 L535.752593457104,676.7939635521643 M535.752593457104,676.7939635521643 L459.6358660677683,690.5028929151697 M459.6358660677683,690.5028929151697 L380.0459942865918,693.2853357539734 M380.0459942865918,693.2853357539734 L301.6195615537876,684.9787867923937 M301.6195615537876,684.9787867923937 L228.9248393410828,666.0683079107944 M228.9248393410828,666.0683079107944 L166.19400484148076,637.6577219214414 M166.19400484148076,637.6577219214414 L117.07540264763048,601.4044159470661 M117.07540264763048,601.4044159470661 L84.42094849804255,559.4215553508805 M84.42094849804255,559.4215553508805 L70.1209586315149,514.1538625763874 M70.1209586315149,514.1538625763874 L74.99610337209867,468.2343882096946 M74.99610337209867,468.2343882096946 L98.75195036198534,424.33102989624143 M98.75195036198534,424.33102989624143 L139.998760418727,384.99163346946096 M139.998760418727,384.99163346946096 L196.33422466407907,352.4967410957401 M196.33422466407907,352.4967410957401 L264.48434122185165,328.72840506471636 M264.48434122185165,328.72840506471636 L340.49368845905553,315.06227795335 M340.49368845905553,315.06227795335 L419.954034915196,312.28891727068117 M419.954034915196,312.28891727068117 L498.2584699003304,320.56874760985914 M498.2584699003304,320.56874760985914 L570.8666701173986,339.42282809471175 M570.8666701173986,339.42282809471175 L633.5662795612341,367.7602560713313 M633.5662795612341,367.7602560713313 L633.5922144143033,316.37764050162104 M633.5922144143033,316.37764050162104 L570.8856400833756,288.04336378520316 M570.8856400833756,288.04336378520316 L498.2693770904371,269.1913803933045 M498.2693770904371,269.1913803933045 L419.9562483803946,260.9124711071509 M419.9562483803946,260.9124711071509 L340.48708018180804,263.685523272271 M340.48708018180804,263.685523272271 L264.4692934194698,277.3501302276497 M264.4692934194698,277.3501302276497 L196.31160799349095,301.11582280751696 M196.31160799349095,301.11582280751696 L139.96988425624045,333.60710206358806 M139.96988425624045,333.60710206358806 L98.71848785887266,372.942125687052 M98.71848785887266,372.942125687052 L74.9599953702832,416.8406056411143 M74.9599953702832,416.8406056411143 L70.08430175171941,462.75497960652996 M70.08430175171941,462.75497960652996 L84.38587372356562,508.0176463570311 M84.38587372356562,508.0176463570311 L117.04395133129702,549.9958473995964 M117.04395133129702,549.9958473995964 L166.16800940646334,586.2451310886461 M166.16800940646334,586.2451310886461 L228.90581573243625,614.6525658205187 M228.90581573243625,614.6525658205187 L301.6086199491952,633.5609476112661 M301.6086199491952,633.5609476112661 L380.0437735190407,641.8665755208185 M380.0437735190407,641.8665755208185 L459.64249582768707,639.0844411992246 M459.64249582768707,639.0844411992246 L535.7676866057504,625.3770319906105 M535.7676866057504,625.3770319906105 L603.9860209469045,601.5446225057472 M603.9860209469045,601.5446225057472 L660.3277446410375,568.9779957896558 M660.3277446410375,568.9779957896558 L701.5184920742424,529.5762553361237 M701.5184920742424,529.5762553361237 L725.1695805776862,485.6349731636816 M725.1695805776862,485.6349731636816 L729.91572016992,439.71151706932903 M729.91572016992,439.71151706932903 L715.4921234028188,394.4755688758931 M715.4921234028188,394.4755688758931 L682.7475045608726,352.55376619818713 M682.7475045608726,352.55376619818713 L633.5922144143033,316.37764050162104" stroke="black"  stroke-width="4"  fill="red"/>
<path d="M533.5068423196069,425.5424353032875 L561.5886406731267,446.2257555820208 M561.5886406731267,446.2257555820208 L580.287195454476,470.19063169608586 M580.287195454476,470.19063169608586 L588.5133921212773,496.0458864435788 M588.5133921212773,496.0458864435788 L585.7857536904437,522.2896665329158 M585.7857536904437,522.2896665329158 L572.2591781095587,547.3965091975999 M572.2591781095587,547.3965091975999 L548.7167891470201,569.906112712205 M548.7167891470201,569.906112712205 L516.5250866297745,588.5084403270259 M516.5250866297745,588.5084403270259 L477.554938550892,602.1202845657067 M477.554938550892,602.1202845657067 L434.07283713735933,609.9487116701482 M434.07283713735933,609.9487116701482 L388.60878564736134,611.5375608184777 M388.60878564736134,611.5375608184777 L343.80863951282134,606.7942436776291 M343.80863951282134,606.7942436776291 L302.2794066531713,595.9951694644594 M302.2794066531713,595.9951694644594 L266.43703224109544,579.7695233103398 M266.43703224109544,579.7695233103398 L238.36542984423374,559.0623147142587 M238.36542984423374,559.0623147142587 L219.6951271321321,535.0790228138367 M219.6951271321321,535.0790228138367 L211.50876644115198,509.21504364033825 M211.50876644115198,509.21504364033825 L214.2786988329233,482.97422914460884 M214.2786988329233,482.97422914460884 L227.84033729640316,457.8813627099166 M227.84033729640316,457.8813627099166 L251.40252559786757,435.3935442779176 M251.40252559786757,435.3935442779176 L283.5942281197085,416.81581990431806 M283.5942281197085,416.81581990431806 L322.54457686488604,403.225760757009 M322.54457686488604,403.225760757009 L365.9916153925649,395.41130989342986 M365.9916153925649,395.41130989342986 L411.41337291270156,393.82542633705646 M411.41337291270156,393.82542633705646 L456.17368306454097,398.56001904549584 M456.17368306454097,398.56001904549584 L497.67466385605144,409.3406774621286 M497.67466385605144,409.3406774621286 L533.5068423196069,425.5424353032875 M533.5068423196069,425.5424353032875 L533.5216696436489,374.15339646291113 M533.5216696436489,374.15339646291113 L561.6065887623301,394.83441829018136 M561.6065887623301,394.83441829018136 L580.3072227292635,418.796631800908 M580.3072227292635,418.796631800908 L588.5343356305186,444.64901453419907 M588.5343356305186,444.64901453419907 L585.806396478938,470.88988010829746 M585.806396478938,470.88988010829746 L572.2783198944996,495.9939351399395 M572.2783198944996,495.9939351399395 L548.7333162124107,518.5010399097409 M548.7333162124107,518.5010399097409 L516.5380368401022,537.1013028856578 M516.5380368401022,537.1013028856578 L477.5635576443003,550.7116365807724 M477.5635576443003,550.7116365807724 L434.0766229364548,558.5391950238535 M434.0766229364548,558.5391950238535 L388.60751753306573,560.1278678767922 M388.60751753306573,560.1278678767922 L343.80239138918614,555.3850770517149 M343.80239138918614,555.3850770517149 L302.26854259959106,544.5872011782724 M302.26854259959106,544.5872011782724 L266.42218513520135,528.3633557442732 M266.42218513520135,528.3633557442732 L238.34746423907336,507.65844559876996 M238.34746423907336,507.65844559876996 L219.67508861997464,483.6778163010042 M219.67508861997464,483.6778163010042 L211.48782054747204,457.8167091413844 M211.48782054747204,457.8167091413844 L214.2580630591706,431.5788091610034 M214.2580630591706,431.5788091610034 L227.82121031838892,406.4887303598711 M227.82121031838892,406.4887303598711 L251.3860177395021,384.0034106734827 M251.3860177395021,384.0034106734827 L283.5812971164078,365.42775093969954 M283.5812971164078,365.42775093969954 L322.5359725784086,351.8392023367648 M322.5359725784086,351.8392023367648 L365.98783660821385,344.0256201350648 M365.98783660821385,344.0256201350648 L411.41463864255746,342.4399128741923 M411.41463864255746,342.4399128741923 L456.17991995080234,347.1739792665366 M456.17991995080234,347.1739792665366 L497.68551039367105,357.9534393427588 M497.68551039367105,357.9534393427588 L533.5216696436489,374.15339646291113" stroke="black"  stroke-width="4"  fill="red"/>
<path d="M622.4510332695825,374.17907243825437 L562.7364175247078,347.18939031185886 M562.7364175247078,347.18939031185886 L493.58378781545355,329.2318500188678 M493.58378781545355,329.2318500188678 L419.0053687124877,321.345696083199 M419.0053687124877,321.345696083199 L343.32592646472204,323.98719596682133 M343.32592646472204,323.98719596682133 L270.9336365631077,337.0035198300412 M270.9336365631077,337.0035198300412 L206.02737790097865,359.6415339625944 M206.02737790097865,359.6415339625944 L152.37455063853594,390.5907576153034 M152.37455063853594,390.5907576153034 L113.09325704732157,428.0583671091952 M113.09325704732157,428.0583671091952 L90.47107968208695,469.8720613463772 M90.47107968208695,469.8720613463772 L85.83102374430075,513.6050938237407 M85.83102374430075,513.6050938237407 L99.4528241485869,556.7165786446456 M99.4528241485869,556.7165786446456 L130.5542640641574,596.6989769918107 M130.5542640641574,596.6989769918107 L177.334595234023,631.2242698797604 M177.334595234023,631.2242698797604 L237.07753301884247,658.2803084743318 M237.07753301884247,658.2803084743318 L306.3086407323447,676.2890037615446 M306.3086407323447,676.2890037615446 L380.99771538788,684.1993922619238 M380.99771538788,684.1993922619238 L456.7946408965039,681.549654600786 M456.7946408965039,681.549654600786 L529.284327764613,668.4945078495743 M529.284327764613,668.4945078495743 L594.2455845835425,645.7959795409615 M594.2455845835425,645.7959795409615 L647.8984118105279,614.778413522344 M647.8984118105279,614.778413522344 L687.1247072046576,577.2502898903856 M687.1247072046576,577.2502898903856 L709.6494876285442,535.3977727825093 M709.6494876285442,535.3977727825093 L714.1720603743261,491.6565025498266 M714.1720603743261,491.6565025498266 L700.4396044705509,448.5692522487834 M700.4396044705509,448.5692522487834 L669.2596865421845,408.63800888229076 M669.2596865421845,408.63800888229076 L622.4510332695825,374.17907243825437 M622.4510332695825,374.17907243825437 L622.4757345010428,322.79574317198336 M622.4757345010428,322.79574317198336 L669.2895903033734,357.2508488657105 M669.2895903033734,357.2508488657105 L700.4729770212023,397.1776545598067 M700.4729770212023,397.1776545598067 L714.2069648981319,440.26011817008873 M714.2069648981319,440.26011817008873 L709.6838961730591,483.9965308787311 M709.6838961730591,483.9965308787311 L687.1566184125879,525.8444019311952 M687.1566184125879,525.8444019311952 L647.9259676032859,563.3683609899113 M647.9259676032859,563.3683609899113 L594.2671789546318,594.3824859462184 M594.2671789546318,594.3824859462184 L529.2987011607208,617.078496684946 M529.2987011607208,617.078496684946 L456.8009544642064,630.132195670192 M456.8009544642064,630.132195670192 L380.9956005372632,632.7816395055149 M380.9956005372632,632.7816395055149 L306.2982209383246,624.8721281973683 M306.2982209383246,624.8721281973683 L237.0594165144951,606.8654301395734 M237.0594165144951,606.8654301395734 L177.30983905294988,579.8123927429799 M177.30983905294988,579.8123927429799 L130.5243116475167,545.2909306028764 M130.5243116475167,545.2909306028764 L99.41942038301733,505.3129699262111 M99.41942038301733,505.3129699262111 L85.79611259705564,462.20627179516987 M85.79611259705564,462.20627179516987 L90.43669062295947,418.4780968421517 M90.43669062295947,418.4780968421517 L113.06138696974966,376.66904866182034 M113.06138696974966,376.66904866182034 L152.34704819864527,339.2056037434162 M152.34704819864527,339.2056037434162 L206.00583688277248,308.25982115555735 M206.00583688277248,308.25982115555735 L270.9193042973918,285.6243245951422 M270.9193042973918,285.6243245951422 L343.31963238242935,272.60944849933486 M343.31963238242935,272.60944849933486 L419.0074769396569,269.96824244183443 M419.0074769396569,269.96824244183443 L493.5941763945236,277.8535191843673 M493.5941763945236,277.8535191843673 L562.7544853735753,295.8090622460348 M562.7544853735753,295.8090622460348 L622.4757345010428,322.79574317198336" stroke="black"  stroke-width="4"  fill="red"/>
<path d="M633.5922144143033,316.37764050162104 L633.6700535446687,162.16130076165297 M633.6700535446687,162.16130076165297 L682.8417394416199,198.32534350986066 M682.8417394416199,198.32534350986066 L715.5972912074958,240.23314888162002 M715.5972912074958,240.23314888162002 L730.0257177822405,285.45399888779707 M730.0257177822405,285.45399888779707 L725.2780172269422,331.36213336133846 M725.2780172269422,331.36213336133846 L701.6190603294226,375.28876092366954 M701.6190603294226,375.28876092366954 L660.4145882055973,414.67736545630527 M660.4145882055973,414.67736545630527 L604.0540776870625,447.2331383484318 M604.0540776870625,447.2331383484318 L535.8129861977582,471.05760689117545 M535.8129861977582,471.05760689117545 L459.66239395725427,484.7604495421781 M459.66239395725427,484.7604495421781 L380.0371082519348,487.54165707518047 M380.0371082519348,487.54165707518047 L301.57578053024054,479.23879601446714 M301.57578053024054,479.23879601446714 L228.8487195152955,460.3367139031125 M228.8487195152955,460.3367139031125 L166.08998840902584,431.93874557388244 M166.08998840902584,431.93874557388244 L116.94955541530851,395.70154485757433 M116.94955541530851,395.70154485757433 L84.28060260668661,353.7373411397627 M84.28060260668661,353.7373411397627 L69.97428221775965,308.48977258543357 M69.97428221775965,308.48977258543357 L74.85162321194423,262.59072023779913 M74.85162321194423,262.59072023779913 L98.61805573309749,218.7068948795716 M98.61805573309749,218.7068948795716 L139.8832172739838,179.38500715476204 M139.8832172739838,179.38500715476204 L196.2437278356938,146.90458169755163 M196.2437278356938,146.90458169755163 L264.42412995698993,123.14683003758938 M264.42412995698993,123.14683003758938 L340.4672465432397,109.48678962557682 M340.4672465432397,109.48678962557682 L419.96289172583147,106.71466424602659 M419.96289172583147,106.71466424602659 L498.30211319707394,114.99080669223201 M498.30211319707394,114.99080669223201 L570.9425752651732,133.83649042351192 M570.9425752651732,133.83649042351192 L633.6700535446687,162.16130076165297 M633.5922144143033,316.37764050162104 L570.8856400833756,288.04336378520316 M570.8856400833756,288.04336378520316 L498.2693770904371,269.1913803933045 M498.2693770904371,269.1913803933045 L419.9562483803946,260.9124711071509 M419.9562483803946,260.9124711071509 L340.48708018180804,263.685523272271 M340.48708018180804,263.685523272271 L264.4692934194698,277.3501302276497 M264.4692934194698,277.3501302276497 L196.31160799349095,301.11582280751696 M196.31160799349095,301.11582280751696 L139.96988425624045,333.60710206358806 M139.96988425624045,333.60710206358806 L98.71848785887266,372.942125687052 M98.71848785887266,372.942125687052 L74.9599953702832,416.8406056411143 M74.9599953702832,416.8406056411143 L70.08430175171941,462.75497960652996 M70.08430175171941,462.75497960652996 L84.38587372356562,508.0176463570311 M84.38587372356562,508.0176463570311 L117.04395133129702,549.9958473995964 M117.04395133129702,549.9958473995964 L166.16800940646334,586.2451310886461 M166.16800940646334,586.2451310886461 L228.90581573243625,614.6525658205187 M228.90581573243625,614.6525658205187 L301.6086199491952,633.5609476112661 M301.6086199491952,633.5609476112661 L380.0437735190407,641.8665755208185 M380.0437735190407,641.8665755208185 L459.64249582768707,639.0844411992246 M459.64249582768707,639.0844411992246 L535.7676866057504,625.3770319906105 M535.7676866057504,625.3770319906105 L603.9860209469045,601.5446225057472 M603.9860209469045,601.5446225057472 L660.3277446410375,568.9779957896558 M660.3277446410375,568.9779957896558 L701.5184920742424,529.5762553361237 M701.5184920742424,529.5762553361237 L725.1695805776862,485.6349731636816 M725.1695805776862,485.6349731636816 L729.91572016992,439.71151706932903 M729.91572016992,439.71151706932903 L715.4921234028188,394.4755688758931 M715.4921234028188,394.4755688758931 L682.7475045608726,352.55376619818713 M682.7475045608726,352.55376619818713 L633.5922144143033,316.37764050162104 M622.4757345010428,322.79574317198336 L562.7544853735753,295.8090622460348 M562.7544853735753,295.8090622460348 L493.5941763945236,277.8535191843673 M493.5941763945236,277.8535191843673 L419.0074769396569,269.96824244183443 M419.0074769396569,269.96824244183443 L343.31963238242935,272.60944849933486 M343.31963238242935,272.60944849933486 L270.9193042973918,285.6243245951422 M270.9193042973918,285.6243245951422 L206.00583688277248,308.25982115555735 M206.00583688277248,308.25982115555735 L152.34704819864527,339.2056037434162 M152.34704819864527,339.2056037434162 L113.06138696974966,376.66904866182034 M113.06138696974966,376.66904866182034 L90.43669062295947,418.4780968421517 M90.43669062295947,418.4780968421517 L85.79611259705564,462.20627179516987 M85.79611259705564,462.20627179516987 L99.41942038301733,505.3129699262111 M99.41942038301733,505.3129699262111 L130.5243116475167,545.2909306028764 M130.5243116475167,545.2909306028764 L177.3098390529517,579.812392742981 M177.3098390529517,579.812392742981 L237.0594165144951,606.8654301395734 M237.0594165144951,606.8654301395734 L306.2982209383246,624.8721281973683 M306.2982209383246,624.8721281973683 L380.9956005372632,632.7816395055149 M380.9956005372632,632.7816395055149 L456.8009544642064,630.132195670192 M456.8009544642064,630.132195670192 L529.2987011607208,617.078496684946 M529.2987011607208,617.078496684946 L594.2671789546318,594.3824859462184 M594.2671789546318,594.3824859462184 L647.9259676032859,563.3683609899113 M647.9259676032859,563.3683609899113 L687.1566184125879,525.8444019311952 M687.1566184125879,525.8444019311952 L709.6838961730591,483.9965308787311 M709.6838961730591,483.9965308787311 L714.2069648981319,440.26011817008873 M714.2069648981319,440.26011817008873 L700.4729770212023,397.1776545598067 M700.4729770212023,397.1776545598067 L669.2895903033734,357.2508488657105 M669.2895903033734,357.2508488657105 L622.4757345010428,322.79574317198336 M622.5498711230816,168.57725948878885 L669.379341455706,203.0208576125409 M669.379341455706,203.0208576125409 L700.5731391743223,242.93433253762925 M700.5731391743223,242.93433253762925 L714.3117250222233,286.0024169207719 M714.3117250222233,286.0024169207719 L709.7871677064636,329.72423761168415 M709.7871677064636,329.72423761168415 L687.2523946125768,371.558151891965 M687.2523946125768,371.558151891965 L648.0086717526906,409.069600547458 M648.0086717526906,409.069600547458 L594.3319908878248,440.0733885276717 M594.3319908878248,440.0733885276717 L529.3418405337127,462.7618364658908 M529.3418405337127,462.7618364658908 L456.8199035947263,475.81118634944755 M456.8199035947263,475.81118634944755 L380.9892531624572,478.45974752935984 M380.9892531624572,478.45974752935984 L306.2669476481371,470.55287131455003 M306.2669476481371,470.55287131455003 L237.00504282179645,452.55217295095025 M237.00504282179645,452.55217295095025 L177.23553747212782,425.5081511763203 M177.23553747212782,425.5081511763203 L130.43441443147242,390.9981966283094 M130.43441443147242,390.9981966283094 L99.31916452268365,351.0335667377112 M99.31916452268365,351.0335667377112 L85.69133258939286,307.94124784189387 M85.69133258939286,307.94124784189387 L90.33347758470586,264.2276649038575 M90.33347758470586,264.2276649038575 L112.9657342431347,222.4325734827602 M112.9657342431347,222.4325734827602 L152.2645042145974,184.98163894740352 M152.2645042145974,184.98163894740352 L205.9411851149837,154.04619331286517 M205.9411851149837,154.04619331286517 L270.8762883978751,131.41825953280545 M270.8762883978751,131.41825953280545 L343.3007417471279,118.40773252576338 M343.3007417471279,118.40773252576338 L419.0138044308672,115.76740912093214 M419.0138044308672,115.76740912093214 L493.62535597740236,123.65005077819421 M493.62535597740236,123.65005077819421 L562.8087130024785,141.5995941626992 M562.8087130024785,141.5995941626992 L622.5498711230816,168.57725948878885 M622.4757345010428,322.79574317198336 L622.5498711230816,168.57725948878885" stroke="black"  stroke-width="4"  fill="red"/>
<path d="M533.5216696436489,374.15339646291113 L561.6065887623301,394.83441829018136 M561.6065887623301,394.83441829018136 L580.3072227292635,418.796631800908 M580.3072227292635,418.796631800908 L588.5343356305186,444.64901453419907 M588.5343356305186,444.64901453419907 L585.806396478938,470.88988010829746 M585.806396478938,470.88988010829746 L572.2783198944996,495.9939351399395 M572.2783198944996,495.9939351399395 L548.7333162124107,518.5010399097409 M548.7333162124107,518.5010399097409 L516.5380368401022,537.1013028856578 M516.5380368401022,537.1013028856578 L477.5635576443003,550.7116365807724 M477.5635576443003,550.7116365807724 L434.0766229364548,558.5391950238535 M434.0766229364548,558.5391950238535 L388.60751753306573,560.1278678767922 M388.60751753306573,560.1278678767922 L343.80239138918614,555.3850770517149 M343.80239138918614,555.3850770517149 L302.26854259959106,544.5872011782724 M302.26854259959106,544.5872011782724 L266.42218513520135,528.3633557442732 M266.42218513520135,528.3633557442732 L238.34746423907336,507.65844559876996 M238.34746423907336,507.65844559876996 L219.67508861997464,483.6778163010042 M219.67508861997464,483.6778163010042 L211.48782054747204,457.8167091413844 M211.48782054747204,457.8167091413844 L214.2580630591706,431.5788091610034 M214.2580630591706,431.5788091610034 L227.82121031838892,406.4887303598711 M227.82121031838892,406.4887303598711 L251.3860177395021,384.0034106734827 M251.3860177395021,384.0034106734827 L283.5812971164078,365.42775093969954 M283.5812971164078,365.42775093969954 L322.5359725784086,351.8392023367648 M322.5359725784086,351.8392023367648 L365.98783660821385,344.0256201350648 M365.98783660821385,344.0256201350648 L411.41463864255746,342.4399128741923 M411.41463864255746,342.4399128741923 L456.17991995080234,347.1739792665366 M456.17991995080234,347.1739792665366 L497.68551039367105,357.9534393427588 M497.68551039367105,357.9534393427588 L533.5216696436489,374.15339646291113 M533.5216696436489,374.15339646291113 L533.56617138554,219.91776122332854 M533.56617138554,219.91776122332854 L561.6604569628671,240.59187850123965 M561.6604569628671,240.59187850123965 L580.3673312618166,264.54609354813306 M580.3673312618166,264.54609354813306 L588.5971940914374,290.3898487446137 M588.5971940914374,290.3898487446137 L585.8683523796569,316.62195910606744 M585.8683523796569,316.62195910606744 L572.3357707851544,341.7176400770897 M572.3357707851544,341.7176400770897 L548.7829194584301,364.2172386056163 M548.7829194584301,364.2172386056163 L516.5769047502047,382.8112993949728 M516.5769047502047,382.8112993949728 L477.5894264254276,396.4170954081102 M477.5894264254276,396.4170954081102 L434.0879853854995,404.242044386906 M434.0879853854995,404.242044386906 L388.6037114979996,405.83018764733345 M388.6037114979996,405.83018764733345 L343.78363868091753,401.0889778782587 M343.78363868091753,401.0889778782587 L302.2359359427654,390.2947018248318 M302.2359359427654,390.2947018248318 L266.37762400817167,374.07626576446455 M266.37762400817167,374.07626576446455 L238.29354345561742,353.3782601762875 M238.29354345561742,353.3782601762875 L219.61494635282705,329.405629348498 M219.61494635282705,329.405629348498 L211.4249549284661,303.5531497285993 M211.4249549284661,303.5531497285993 L214.1961282167123,277.3240049598735 M214.1961282167123,277.3240049598735 L227.7638038781415,252.2423002146985 M227.7638038781415,252.2423002146985 L251.33647215299004,229.7644867623185 M251.33647215299004,229.7644867623185 L283.542486865819,211.19502920689098 M283.542486865819,211.19502920689098 L322.5101482477018,197.6110182786701 M322.5101482477018,197.6110182786701 L365.9764952174383,189.80004553659617 M365.9764952174383,189.80004553659617 L411.41843751953326,188.2148678672463 M411.41843751953326,188.2148678672463 L456.19863892446415,192.94735320649627 M456.19863892446415,192.94735320649627 L497.71806446756676,203.72321346884254 M497.71806446756676,203.72321346884254 L533.56617138554,219.91776122332854" stroke="black"  stroke-width="4"  fill="red"/>
<path d="M622.4757345010428,322.79574317198336 L622.5498711230816,168.57725948878885 M177.30983905295042,579.8123927429804 L177.23553747212839,425.50815117632067 M622.4757345010428,322.79574317198336 L669.2895903033734,357.2508488657105 M669.2895903033734,357.2508488657105 L700.4729770212023,397.1776545598067 M700.4729770212023,397.1776545598067 L714.2069648981319,440.26011817008873 M714.2069648981319,440.26011817008873 L709.6838961730591,483.9965308787311 M709.6838961730591,483.9965308787311 L687.1566184125879,525.8444019311952 M687.1566184125879,525.8444019311952 L647.9259676032859,563.3683609899113 M647.9259676032859,563.3683609899113 L594.2671789546318,594.3824859462184 M594.2671789546318,594.3824859462184 L529.2987011607208,617.078496684946 M529.2987011607208,617.078496684946 L456.8009544642064,630.132195670192 M456.8009544642064,630.132195670192 L380.9956005372632,632.7816395055149 M380.9956005372632,632.7816395055149 L306.2982209383246,624.8721281973683 M306.2982209383246,624.8721281973683 L237.0594165144951,606.8654301395734 M237.0594165144951,606.8654301395734 L177.30983905295042,579.8123927429804 M622.5498711230816,168.57725948878885 L669.379341455706,203.0208576125409 M669.379341455706,203.0208576125409 L700.5731391743223,242.93433253762925 M700.5731391743223,242.93433253762925 L714.3117250222233,286.0024169207719 M714.3117250222233,286.0024169207719 L709.7871677064636,329.72423761168415 M709.7871677064636,329.72423761168415 L687.2523946125768,371.558151891965 M687.2523946125768,371.558151891965 L648.0086717526906,409.069600547458 M648.0086717526906,409.069600547458 L594.3319908878248,440.0733885276717 M594.3319908878248,440.0733885276717 L529.3418405337127,462.7618364658908 M529.3418405337127,462.7618364658908 L456.8199035947263,475.81118634944755 M456.8199035947263,475.81118634944755 L380.9892531624572,478.45974752935984 M380.9892531624572,478.45974752935984 L306.2669476481371,470.55287131455003 M306.2669476481371,470.55287131455003 L237.00504282179645,452.55217295095025 M237.00504282179645,452.55217295095025 L177.23553747212839,425.50815117632067 M177.30983905295042,579.8123927429804 L130.5243116475167,545.2909306028764 M130.5243116475167,545.2909306028764 L99.41942038301733,505.3129699262111 M99.41942038301733,505.3129699262111 L85.79611259705564,462.20627179516987 M85.79611259705564,462.20627179516987 L90.43669062295947,418.4780968421517 M90.43669062295947,418.4780968421517 L113.06138696974966,376.66904866182034 M113.06138696974966,376.66904866182034 L152.34704819864527,339.2056037434162 M152.34704819864527,339.2056037434162 L206.00583688277248,308.25982115555735 M206.00583688277248,308.25982115555735 L270.9193042973918,285.6243245951422 M270.9193042973918,285.6243245951422 L343.31963238242935,272.60944849933486 M343.31963238242935,272.60944849933486 L419.0074769396569,269.96824244183443 M419.0074769396569,269.96824244183443 L493.5941763945236,277.8535191843673 M493.5941763945236,277.8535191843673 L562.7544853735753,295.8090622460348 M562.7544853735753,295.8090622460348 L622.4757345010428,322.79574317198336 M177.23553747212839,425.50815117632067 L130.43441443147242,390.9981966283094 M130.43441443147242,390.9981966283094 L99.31916452268365,351.0335667377112 M99.31916452268365,351.0335667377112 L85.69133258939286,307.94124784189387 M85.69133258939286,307.94124784189387 L90.33347758470586,264.2276649038575 M90.33347758470586,264.2276649038575 L112.9657342431347,222.4325734827602 M112.9657342431347,222.4325734827602 L152.2645042145974,184.98163894740352 M152.2645042145974,184.98163894740352 L205.9411851149837,154.04619331286517 M205.9411851149837,154.04619331286517 L270.8762883978751,131.41825953280545 M270.8762883978751,131.41825953280545 L343.3007417471279,118.40773252576338 M343.3007417471279,118.40773252576338 L419.0138044308672,115.76740912093214 M419.0138044308672,115.76740912093214 L493.62535597740236,123.65005077819421 M493.62535597740236,123.65005077819421 L562.8087130024785,141.5995941626992 M562.8087130024785,141.5995941626992 L622.5498711230816,168.57725948878885 M266.42218513520174,528.3633557442733 L266.377624008172,374.0762657644648 M533.5216696436489,374.15339646291113 L533.56617138554,219.91776122332854 M266.42218513520174,528.3633557442733 L238.34746423907336,507.65844559876996 M238.34746423907336,507.65844559876996 L219.67508861997464,483.6778163010042 M219.67508861997464,483.6778163010042 L211.48782054747204,457.8167091413844 M211.48782054747204,457.8167091413844 L214.2580630591706,431.5788091610034 M214.2580630591706,431.5788091610034 L227.82121031838892,406.4887303598711 M227.82121031838892,406.4887303598711 L251.3860177395021,384.0034106734827 M251.3860177395021,384.0034106734827 L283.5812971164078,365.42775093969954 M283.5812971164078,365.42775093969954 L322.5359725784086,351.8392023367648 M322.5359725784086,351.8392023367648 L365.98783660821385,344.0256201350648 M365.98783660821385,344.0256201350648 L411.41463864255746,342.4399128741923 M411.41463864255746,342.4399128741923 L456.17991995080234,347.1739792665366 M456.17991995080234,347.1739792665366 L497.68551039367105,357.9534393427588 M497.68551039367105,357.9534393427588 L533.5216696436489,374.15339646291113 M266.377624008172,374.0762657644648 L238.29354345561742,353.3782601762875 M238.29354345561742,353.3782601762875 L219.61494635282705,329.405629348498 M219.61494635282705,329.405629348498 L211.4249549284661,303.5531497285993 M211.4249549284661,303.5531497285993 L214.1961282167123,277.3240049598735 M214.1961282167123,277.3240049598735 L227.7638038781415,252.2423002146985 M227.7638038781415,252.2423002146985 L251.33647215299004,229.7644867623185 M251.33647215299004,229.7644867623185 L283.542486865819,211.19502920689098 M283.542486865819,211.19502920689098 L322.5101482477018,197.6110182786701 M322.5101482477018,197.6110182786701 L365.9764952174383,189.80004553659617 M365.9764952174383,189.80004553659617 L411.41843751953326,188.2148678672463 M411.41843751953326,188.2148678672463 L456.19863892446415,192.94735320649627 M456.19863892446415,192.94735320649627 L497.71806446756676,203.72321346884254 M497.71806446756676,203.72321346884254 L533.56617138554,219.91776122332854 M533.5216696436489,374.15339646291113 L561.6065887623301,394.83441829018136 M561.6065887623301,394.83441829018136 L580.3072227292635,418.796631800908 M580.3072227292635,418.796631800908 L588.5343356305186,444.64901453419907 M588.5343356305186,444.64901453419907 L585.806396478938,470.88988010829746 M585.806396478938,470.88988010829746 L572.2783198944996,495.9939351399395 M572.2783198944996,495.9939351399395 L548.7333162124107,518.5010399097409 M548.7333162124107,518.5010399097409 L516.5380368401022,537.1013028856578 M516.5380368401022,537.1013028856578 L477.5635576443003,550.7116365807724 M477.5635576443003,550.7116365807724 L434.0766229364548,558.5391950238535 M434.0766229364548,558.5391950238535 L388.60751753306573,560.1278678767922 M388.60751753306573,560.1278678767922 L343.80239138918614,555.3850770517149 M343.80239138918614,555.3850770517149 L302.26854259959106,544.5872011782724 M302.26854259959106,544.5872011782724 L266.42218513520174,528.3633557442733 M533.56617138554,219.91776122332854 L561.6604569628671,240.59187850123965 M561.6604569628671,240.59187850123965 L580.3673312618166,264.54609354813306 M580.3673312618166,264.54609354813306 L588.5971940914374,290.3898487446137 M588.5971940914374,290.3898487446137 L585.8683523796569,316.62195910606744 M585.8683523796569,316.62195910606744 L572.3357707851544,341.7176400770897 M572.3357707851544,341.7176400770897 L548.7829194584301,364.2172386056163 M548.7829194584301,364.2172386056163 L516.5769047502047,382.8112993949728 M516.5769047502047,382.8112993949728 L477.5894264254276,396.4170954081102 M477.5894264254276,396.4170954081102 L434.0879853854995,404.242044386906 M434.0879853854995,404.242044386906 L388.6037114979996,405.83018764733345 M388.6037114979996,405.83018764733345 L343.78363868091753,401.0889778782587 M343.78363868091753,401.0889778782587 L302.2359359427654,390.2947018248318 M302.2359359427654,390.2947018248318 L266.377624008172,374.0762657644648" stroke="black"  stroke-width="4"  fill="red"/></svg>